HIERARCHY
ROOT Hips
{
  OFFSET 0.000000 0.000000 0.000000
  CHANNELS 6 Xposition Yposition Zposition Zrotation Yrotation Xrotation
  JOINT Spine
  {
    OFFSET -0.000883 2.120903 -0.028059
    CHANNELS 3 Zrotation Yrotation Xrotation
    JOINT Spine1
    {
      OFFSET -0.002865 2.096658 0.129739
      CHANNELS 3 Zrotation Yrotation Xrotation
      JOINT Spine2
      {
        OFFSET -0.000072 2.101496 0.140380
        CHANNELS 3 Zrotation Yrotation Xrotation
        JOINT Neck
        {
          OFFSET 0.073278 1.835262 0.072900
          CHANNELS 3 Zrotation Yrotation Xrotation
          JOINT Head
          {
            OFFSET -0.033980 1.851628 -0.175733
            CHANNELS 3 Zrotation Yrotation Xrotation
            End Site
            {
              OFFSET 0 0 0
            }
          }
        }
        JOINT LeftShoulder
        {
          OFFSET 3.021134 1.180177 0.406022
          CHANNELS 3 Zrotation Yrotation Xrotation
          JOINT LeftArm
          {
            OFFSET 4.585380 -0.000000 -0.000000
            CHANNELS 3 Zrotation Yrotation Xrotation
            JOINT LeftForeArm
            {
              OFFSET 2.689350 -0.000000 -0.000000
              CHANNELS 3 Zrotation Yrotation Xrotation
              JOINT LeftHand
              {
                OFFSET 0.585058 -0.000000 -0.000000
                CHANNELS 3 Zrotation Yrotation Xrotation
                JOINT LeftHandIndex1
                {
                  OFFSET 0.471689 -0.000000 -0.000000
                  CHANNELS 3 Zrotation Yrotation Xrotation
                  End Site
                  {
                    OFFSET 0 0 0
                  }
                }
              }
            }
          }
        }
        JOINT RightShoulder
        {
          OFFSET -2.950738 1.188427 0.314298
          CHANNELS 3 Zrotation Yrotation Xrotation
          JOINT RightArm
          {
            OFFSET -4.474500 -0.000000 -0.000000
            CHANNELS 3 Zrotation Yrotation Xrotation
            JOINT RightForeArm
            {
              OFFSET -2.938960 -0.000000 -0.000000
              CHANNELS 3 Zrotation Yrotation Xrotation
              JOINT RightHand
              {
                OFFSET -0.405092 -0.000000 -0.000000
                CHANNELS 3 Zrotation Yrotation Xrotation
                JOINT RightHandIndex1
                {
                  OFFSET -0.326596 -0.000000 -0.000000
                  CHANNELS 3 Zrotation Yrotation Xrotation
                  End Site
                  {
                    OFFSET 0 0 0
                  }
                }
              }
            }
          }
        }
      }
    }
  }
  JOINT LeftUpLeg
  {
    OFFSET 2.251771 -6.186694 0.000000
    CHANNELS 3 Zrotation Yrotation Xrotation
    JOINT LeftLeg
    {
      OFFSET 2.266012 -6.225823 0.000000
      CHANNELS 3 Zrotation Yrotation Xrotation
      JOINT LeftFoot
      {
        OFFSET 0.237014 -0.651191 2.158476
        CHANNELS 3 Zrotation Yrotation Xrotation
        JOINT LeftToeBase
        {
          OFFSET 0.000000 -0.000000 1.129490
          CHANNELS 3 Zrotation Yrotation Xrotation
          End Site
          {
            OFFSET 0 0 0
          }
        }
      }
    }
  }
  JOINT RightUpLeg
  {
    OFFSET -2.280357 -6.265234 0.000000
    CHANNELS 3 Zrotation Yrotation Xrotation
    JOINT RightLeg
    {
      OFFSET -2.254897 -6.195283 0.000000
      CHANNELS 3 Zrotation Yrotation Xrotation
      JOINT RightFoot
      {
        OFFSET -0.283752 -0.779600 2.231370
        CHANNELS 3 Zrotation Yrotation Xrotation
        JOINT RightToeBase
        {
          OFFSET -0.000000 -0.000000 1.178990
          CHANNELS 3 Zrotation Yrotation Xrotation
          End Site
          {
            OFFSET 0 0 0
          }
        }
      }
    }
  }
}
MOTION
Frames: 6
Frame Time: 0.00833333
-0.215390 15.737300 7.082930 1.687990 -5.196070 8.673100 -18.216100 -14.503400 -6.628290 0.000000 0.000000 14.553600 24.326000 0.000000 -14.305900 0.000000 0.000000 0.016296 13.122900 10.175400 -15.200500 0.000000 0.000000 27.691400 -22.381600 0.000000 -17.378900 0.000000 0.000000 -1.647150 -0.267448 -0.916671 -5.644460 -0.242430 -1.246360 -7.879790 -0.115565 -0.625512 -5.004980 11.492500 5.660610 -8.033640 -3.697510 4.106870 11.922600 -0.000000 -0.000000 0.000000 62.300600 20.711900 -53.299100 0.000000 0.000000 28.404800 14.865400 0.000000 -4.211770 0.000000 0.000000 7.125020 -0.000000 -0.000000 0.000000 -60.745500 -19.962600 -50.358700 0.000000 0.000000 25.088600 -6.509850 0.000000 -10.435800 0.000000 0.000000 7.125020
-0.215211 15.737300 7.081250 1.699700 -5.261370 8.646950 -18.243000 -14.529100 -6.559550 0.000000 0.000000 14.484500 24.405300 0.000000 -14.292300 0.000000 0.000000 0.095805 13.105800 10.181400 -15.207700 0.000000 0.000000 27.723600 -22.314200 0.000000 -17.403800 0.000000 0.000000 -1.653720 -0.271365 -0.891768 -5.663300 -0.258070 -1.213400 -7.860530 -0.129720 -0.609368 -4.974100 11.493400 5.660900 -8.070000 -3.655030 4.106430 11.986000 -0.000000 -0.000000 0.000000 62.500000 20.592700 -53.186500 0.000000 0.000000 28.528500 14.918600 0.000000 -4.128440 0.000000 0.000000 7.125020 -0.000000 -0.000000 0.000000 -61.419600 -19.581100 -49.778200 0.000000 0.000000 25.587300 -5.851470 0.000000 -10.472300 0.000000 0.000000 7.125020
-0.215544 15.738400 7.079180 1.691560 -5.363980 8.634280 -18.250400 -14.677200 -6.511250 0.000000 0.000000 14.462700 24.618700 0.000000 -14.349800 0.000000 0.000000 0.230164 13.105700 10.203500 -15.256200 0.000000 0.000000 27.737300 -22.262800 0.000000 -17.329900 0.000000 0.000000 -1.770990 -0.273559 -0.866838 -5.681190 -0.259936 -1.180190 -7.854510 -0.130379 -0.592799 -4.957580 11.530500 5.672020 -8.084500 -3.625310 4.115280 12.042100 -0.000000 0.000000 0.000000 62.717300 20.454600 -53.090700 0.000000 0.000000 28.676800 14.880100 0.000000 -4.107150 0.000000 0.000000 7.125020 -0.000000 0.000000 0.000000 -62.213600 -19.101800 -49.144300 0.000000 0.000000 26.152200 -5.737820 0.000000 -10.491700 0.000000 0.000000 7.125020
-0.216139 15.737300 7.076790 1.695010 -5.425500 8.629100 -18.260100 -14.646000 -6.491440 0.000000 0.000000 14.438600 24.656200 0.000000 -14.332900 0.000000 0.000000 0.212274 13.093900 10.194900 -15.276000 0.000000 0.000000 27.748600 -22.174500 0.000000 -17.349600 0.000000 0.000000 -1.699450 -0.258463 -0.843554 -5.704380 -0.286867 -1.150390 -7.857390 -0.166699 -0.579627 -4.948450 11.565000 5.664920 -8.138070 -3.596240 4.110840 12.125300 -0.000000 0.000000 0.000000 62.980600 20.233300 -52.989700 0.000000 0.000000 28.931600 14.818500 0.000000 -4.122600 0.000000 0.000000 7.125020 -0.000000 0.000000 0.000000 -63.224800 -18.454800 -48.516200 0.000000 0.000000 26.642800 -5.029010 0.000000 -11.536300 0.000000 0.000000 7.125020
-0.216670 15.737100 7.074540 1.693300 -5.490370 8.618200 -18.266100 -14.666600 -6.465990 0.000000 0.000000 14.424500 24.733700 0.000000 -14.345900 0.000000 0.000000 0.249239 13.089100 10.206600 -15.296400 0.000000 0.000000 27.755800 -22.113700 0.000000 -17.345000 0.000000 0.000000 -1.665930 -0.248636 -0.822605 -5.722100 -0.304080 -1.123260 -7.856390 -0.189970 -0.567193 -4.937930 11.593300 5.662840 -8.159870 -3.565380 4.110610 12.186600 -0.000000 -0.000000 0.000000 63.224800 20.048800 -52.885000 0.000000 0.000000 29.145300 14.786400 0.000000 -4.124240 0.000000 0.000000 7.125020 -0.000000 -0.000000 0.000000 -64.073900 -17.898300 -47.922900 0.000000 0.000000 27.195300 -4.576020 0.000000 -12.001700 0.000000 0.000000 7.125020
-0.217384 15.737000 7.072200 1.687710 -5.547070 8.608310 -18.265400 -14.673000 -6.457360 0.000000 0.000000 14.437200 24.790700 0.000000 -14.368900 0.000000 0.000000 0.272835 13.090100 10.218600 -15.310500 0.000000 0.000000 27.751500 -22.060500 0.000000 -17.333600 0.000000 0.000000 -1.628380 -0.234297 -0.804738 -5.738300 -0.321091 -1.100360 -7.857930 -0.215549 -0.557104 -4.931040 11.618300 5.658630 -8.173360 -3.534270 4.109190 12.242300 0.000000 0.000000 0.000000 63.476800 19.857900 -52.778300 0.000000 0.000000 29.382500 14.749300 0.000000 -4.141730 0.000000 0.000000 7.125020 0.000000 0.000000 0.000000 -64.915600 -17.333100 -47.343900 0.000000 0.000000 27.811400 -4.418020 0.000000 -12.308100 0.000000 0.000000 7.125020
